<mxfile host="app.diagrams.net" agent="Mozilla/5.0 (X11; Linux x86_64) AppleWebKit/537.36 (KHTML, like Gecko) Chrome/128.0.0.0 Safari/537.36" version="24.7.16">
  <diagram name="Page-1" id="GsjBTF925dW6HwYl5dRf">
    <mxGraphModel dx="1434" dy="754" grid="1" gridSize="10" guides="1" tooltips="1" connect="1" arrows="1" fold="1" page="1" pageScale="1" pageWidth="850" pageHeight="1100" math="0" shadow="0">
      <root>
        <mxCell id="0" />
        <mxCell id="1" parent="0" />
        <mxCell id="DU1PP0SDqfENR5tr1zNY-1" value="&lt;table&gt;&lt;tbody&gt;&lt;tr&gt;&lt;td&gt;2&lt;/td&gt;&lt;/tr&gt;&lt;tr&gt;&lt;td&gt;Alex&lt;/td&gt;&lt;/tr&gt;&lt;/tbody&gt;&lt;/table&gt;" style="rounded=1;whiteSpace=wrap;html=1;" vertex="1" parent="1">
          <mxGeometry x="150" y="360" width="90" height="50" as="geometry" />
        </mxCell>
        <mxCell id="DU1PP0SDqfENR5tr1zNY-2" value="&lt;table&gt;&lt;tbody&gt;&lt;tr&gt;&lt;td&gt;3&lt;/td&gt;&lt;/tr&gt;&lt;tr&gt;&lt;td&gt;Anatolii&lt;/td&gt;&lt;/tr&gt;&lt;/tbody&gt;&lt;/table&gt;" style="rounded=1;whiteSpace=wrap;html=1;" vertex="1" parent="1">
          <mxGeometry x="220" y="610" width="90" height="50" as="geometry" />
        </mxCell>
        <mxCell id="DU1PP0SDqfENR5tr1zNY-3" value="&lt;table&gt;&lt;tbody&gt;&lt;tr&gt;&lt;td&gt;1&lt;/td&gt;&lt;/tr&gt;&lt;tr&gt;&lt;td&gt;AlÃª&lt;/td&gt;&lt;/tr&gt;&lt;/tbody&gt;&lt;/table&gt;" style="rounded=1;whiteSpace=wrap;html=1;" vertex="1" parent="1">
          <mxGeometry x="420" y="180" width="90" height="50" as="geometry" />
        </mxCell>
        <mxCell id="DU1PP0SDqfENR5tr1zNY-4" value="&lt;table&gt;&lt;tbody&gt;&lt;tr&gt;&lt;td&gt;4&lt;/td&gt;&lt;/tr&gt;&lt;tr&gt;&lt;td&gt;Francisco&lt;/td&gt;&lt;/tr&gt;&lt;/tbody&gt;&lt;/table&gt;" style="rounded=1;whiteSpace=wrap;html=1;" vertex="1" parent="1">
          <mxGeometry x="620" y="610" width="90" height="50" as="geometry" />
        </mxCell>
        <mxCell id="DU1PP0SDqfENR5tr1zNY-5" value="&lt;table&gt;&lt;tbody&gt;&lt;tr&gt;&lt;td&gt;5&lt;/td&gt;&lt;/tr&gt;&lt;tr&gt;&lt;td&gt;Rajh&lt;/td&gt;&lt;/tr&gt;&lt;/tbody&gt;&lt;/table&gt;" style="rounded=1;whiteSpace=wrap;html=1;" vertex="1" parent="1">
          <mxGeometry x="689" y="360" width="90" height="50" as="geometry" />
        </mxCell>
        <mxCell id="DU1PP0SDqfENR5tr1zNY-9" value="" style="endArrow=classic;html=1;rounded=0;entryX=1;entryY=0;entryDx=0;entryDy=0;fillColor=#d5e8d4;strokeColor=#82b366;exitX=0;exitY=1;exitDx=0;exitDy=0;" edge="1" parent="1" source="DU1PP0SDqfENR5tr1zNY-3" target="DU1PP0SDqfENR5tr1zNY-1">
          <mxGeometry width="50" height="50" relative="1" as="geometry">
            <mxPoint x="420" y="240" as="sourcePoint" />
            <mxPoint x="450" y="470" as="targetPoint" />
          </mxGeometry>
        </mxCell>
        <mxCell id="DU1PP0SDqfENR5tr1zNY-10" value="" style="endArrow=classic;html=1;rounded=0;fillColor=#d5e8d4;strokeColor=#82b366;exitX=0.5;exitY=1;exitDx=0;exitDy=0;entryX=0.75;entryY=0;entryDx=0;entryDy=0;" edge="1" parent="1" source="DU1PP0SDqfENR5tr1zNY-3" target="DU1PP0SDqfENR5tr1zNY-2">
          <mxGeometry width="50" height="50" relative="1" as="geometry">
            <mxPoint x="444" y="240" as="sourcePoint" />
            <mxPoint x="310" y="610" as="targetPoint" />
          </mxGeometry>
        </mxCell>
        <mxCell id="DU1PP0SDqfENR5tr1zNY-11" value="" style="endArrow=classic;html=1;rounded=0;fillColor=#d5e8d4;strokeColor=#82b366;exitX=0.75;exitY=1;exitDx=0;exitDy=0;entryX=0.25;entryY=0;entryDx=0;entryDy=0;" edge="1" parent="1" source="DU1PP0SDqfENR5tr1zNY-3" target="DU1PP0SDqfENR5tr1zNY-4">
          <mxGeometry width="50" height="50" relative="1" as="geometry">
            <mxPoint x="454" y="250" as="sourcePoint" />
            <mxPoint x="690" y="600" as="targetPoint" />
          </mxGeometry>
        </mxCell>
        <mxCell id="DU1PP0SDqfENR5tr1zNY-12" value="" style="endArrow=classic;html=1;rounded=0;entryX=0;entryY=0;entryDx=0;entryDy=0;fillColor=#d5e8d4;strokeColor=#82b366;exitX=1;exitY=1;exitDx=0;exitDy=0;" edge="1" parent="1" source="DU1PP0SDqfENR5tr1zNY-3" target="DU1PP0SDqfENR5tr1zNY-5">
          <mxGeometry width="50" height="50" relative="1" as="geometry">
            <mxPoint x="464" y="260" as="sourcePoint" />
            <mxPoint x="270" y="415" as="targetPoint" />
          </mxGeometry>
        </mxCell>
        <mxCell id="DU1PP0SDqfENR5tr1zNY-13" value="" style="endArrow=classic;html=1;rounded=0;entryX=0.25;entryY=0;entryDx=0;entryDy=0;fillColor=#d5e8d4;strokeColor=#82b366;exitX=0.5;exitY=1;exitDx=0;exitDy=0;" edge="1" parent="1" source="DU1PP0SDqfENR5tr1zNY-1" target="DU1PP0SDqfENR5tr1zNY-2">
          <mxGeometry width="50" height="50" relative="1" as="geometry">
            <mxPoint x="160" y="410" as="sourcePoint" />
            <mxPoint x="-20" y="540" as="targetPoint" />
          </mxGeometry>
        </mxCell>
        <mxCell id="DU1PP0SDqfENR5tr1zNY-14" value="" style="endArrow=classic;html=1;rounded=0;fillColor=#ffe6cc;strokeColor=#d79b00;exitX=1;exitY=1;exitDx=0;exitDy=0;" edge="1" parent="1" source="DU1PP0SDqfENR5tr1zNY-1" target="DU1PP0SDqfENR5tr1zNY-4">
          <mxGeometry width="50" height="50" relative="1" as="geometry">
            <mxPoint x="170" y="420" as="sourcePoint" />
            <mxPoint x="230" y="620" as="targetPoint" />
          </mxGeometry>
        </mxCell>
        <mxCell id="DU1PP0SDqfENR5tr1zNY-15" value="" style="endArrow=classic;html=1;rounded=0;fillColor=#f8cecc;strokeColor=#b85450;exitX=1;exitY=0.5;exitDx=0;exitDy=0;" edge="1" parent="1" source="DU1PP0SDqfENR5tr1zNY-1" target="DU1PP0SDqfENR5tr1zNY-5">
          <mxGeometry width="50" height="50" relative="1" as="geometry">
            <mxPoint x="180" y="430" as="sourcePoint" />
            <mxPoint x="240" y="630" as="targetPoint" />
          </mxGeometry>
        </mxCell>
        <mxCell id="DU1PP0SDqfENR5tr1zNY-16" value="" style="endArrow=classic;html=1;rounded=0;fillColor=#ffe6cc;strokeColor=#d79b00;exitX=0.25;exitY=1;exitDx=0;exitDy=0;entryX=0.5;entryY=0;entryDx=0;entryDy=0;" edge="1" parent="1" source="DU1PP0SDqfENR5tr1zNY-5" target="DU1PP0SDqfENR5tr1zNY-4">
          <mxGeometry width="50" height="50" relative="1" as="geometry">
            <mxPoint x="250" y="420" as="sourcePoint" />
            <mxPoint x="630" y="621" as="targetPoint" />
          </mxGeometry>
        </mxCell>
        <mxCell id="DU1PP0SDqfENR5tr1zNY-21" value="" style="endArrow=classic;html=1;rounded=0;exitX=0.5;exitY=0;exitDx=0;exitDy=0;entryX=0.25;entryY=1;entryDx=0;entryDy=0;" edge="1" parent="1" source="DU1PP0SDqfENR5tr1zNY-2" target="DU1PP0SDqfENR5tr1zNY-3">
          <mxGeometry width="50" height="50" relative="1" as="geometry">
            <mxPoint x="450" y="510" as="sourcePoint" />
            <mxPoint x="500" y="460" as="targetPoint" />
          </mxGeometry>
        </mxCell>
        <mxCell id="DU1PP0SDqfENR5tr1zNY-23" value="" style="endArrow=classic;html=1;rounded=0;entryX=1;entryY=0.75;entryDx=0;entryDy=0;exitX=0;exitY=0.75;exitDx=0;exitDy=0;" edge="1" parent="1" source="DU1PP0SDqfENR5tr1zNY-4" target="DU1PP0SDqfENR5tr1zNY-2">
          <mxGeometry width="50" height="50" relative="1" as="geometry">
            <mxPoint x="610" y="648" as="sourcePoint" />
            <mxPoint x="740" y="410" as="targetPoint" />
          </mxGeometry>
        </mxCell>
        <mxCell id="DU1PP0SDqfENR5tr1zNY-24" value="" style="endArrow=classic;html=1;rounded=0;entryX=0;entryY=0.25;entryDx=0;entryDy=0;exitX=1;exitY=0.25;exitDx=0;exitDy=0;" edge="1" parent="1" source="DU1PP0SDqfENR5tr1zNY-2" target="DU1PP0SDqfENR5tr1zNY-4">
          <mxGeometry width="50" height="50" relative="1" as="geometry">
            <mxPoint x="810" y="430" as="sourcePoint" />
            <mxPoint x="744" y="420" as="targetPoint" />
          </mxGeometry>
        </mxCell>
      </root>
    </mxGraphModel>
  </diagram>
</mxfile>
